<?xml version="1.0" encoding="UTF-8"?>
<svg id="Layer_1" data-name="Layer 1" xmlns="http://www.w3.org/2000/svg" viewBox="0 0 160.4 71.74">
  <defs>
    <style>
      .cls-1 {
        fill: #333041;
      }

      .cls-2 {
        fill: #0cc2ac;
      }

      .cls-3 {
        fill: #ad1d12;
      }

      .cls-4 {
        fill: #fff;
      }

      .cls-5 {
        fill: #00b09b;
      }

      .cls-6 {
        fill: #d93225;
      }

      .cls-7 {
        fill: #c1e0e0;
      }
    </style>
  </defs>
  <rect class="cls-4" x="73.78" y="8.03" width="25.39" height="6.9"/>
  <rect class="cls-7" x="71.62" y="6.08" width="29.72" height="2.53"/>
  <rect class="cls-4" x="54.08" y="40.31" width="63.58" height="13.89"/>
  <rect class="cls-4" x="65.77" y="16.56" width="41.41" height="23.75"/>
  <rect class="cls-3" x="54.08" y="36.66" width="52.62" height="3.65"/>
  <rect class="cls-3" x="65.77" y="13.47" width="41.41" height="3.01"/>
  <g>
    <path class="cls-3" d="M67,46.78c.07,2.18-1.64,4.01-3.83,4.09-2.19.07-4.02-1.65-4.09-3.83s1.65-4.01,3.83-4.08c2.18-.08,4.02,1.64,4.09,3.83h0Z"/>
    <path class="cls-5" d="M66.23,46.8c.05,1.75-1.32,3.23-3.08,3.28-1.76.06-3.23-1.32-3.29-3.08-.05-1.76,1.32-3.23,3.09-3.29,1.76-.05,3.22,1.32,3.28,3.08h0Z"/>
    <path class="cls-2" d="M65.68,46.29c.05,1.47-1.11,2.69-2.57,2.74-1.46.05-2.69-1.1-2.74-2.57-.05-1.47,1.11-2.7,2.58-2.74,1.46-.05,2.68,1.11,2.74,2.57h0Z"/>
  </g>
  <g>
    <path class="cls-3" d="M81.79,46.78c.07,2.18-1.64,4.01-3.83,4.09-2.19.07-4.02-1.65-4.09-3.83s1.64-4.01,3.83-4.08c2.18-.08,4.02,1.64,4.09,3.83h0Z"/>
    <path class="cls-5" d="M81.02,46.8c.05,1.75-1.32,3.23-3.08,3.28-1.76.06-3.23-1.32-3.29-3.08-.05-1.76,1.32-3.23,3.09-3.29,1.76-.05,3.22,1.32,3.28,3.08h0Z"/>
    <path class="cls-2" d="M80.47,46.29c.05,1.47-1.11,2.69-2.58,2.74-1.46.05-2.69-1.1-2.74-2.57-.05-1.47,1.1-2.7,2.57-2.74,1.46-.05,2.68,1.11,2.74,2.57h.01Z"/>
  </g>
  <g>
    <path class="cls-3" d="M96.58,46.78c.07,2.18-1.64,4.01-3.83,4.09-2.19.07-4.02-1.65-4.09-3.83-.07-2.18,1.64-4.01,3.83-4.08,2.18-.08,4.02,1.64,4.09,3.83h0Z"/>
    <path class="cls-5" d="M95.8,46.8c.06,1.75-1.32,3.23-3.08,3.28-1.75.06-3.23-1.32-3.29-3.08-.05-1.76,1.33-3.23,3.09-3.29,1.76-.05,3.22,1.32,3.28,3.08h0Z"/>
    <path class="cls-2" d="M95.26,46.29c.05,1.47-1.11,2.69-2.58,2.74-1.46.05-2.69-1.1-2.74-2.57-.05-1.47,1.11-2.7,2.58-2.74,1.46-.05,2.68,1.11,2.74,2.57Z"/>
  </g>
  <path class="cls-6" d="M106.7,36.66c-9.5,16.45-32.52,16.45-32.52,16.45H0v18.63h134.46l25.94-35.08h-53.71,0ZM136.59,43.97c-1.31,0-2.38-1.06-2.38-2.38s1.06-2.37,2.38-2.37,2.38,1.06,2.38,2.37-1.06,2.38-2.38,2.38ZM143.42,43.97c-1.31,0-2.38-1.06-2.38-2.38s1.07-2.37,2.38-2.37,2.37,1.06,2.37,2.37-1.06,2.38-2.37,2.38ZM150.24,43.97c-1.31,0-2.38-1.06-2.38-2.38s1.06-2.37,2.38-2.37,2.38,1.06,2.38,2.37-1.06,2.38-2.38,2.38Z"/>
  <polygon class="cls-5" points="0 65.77 0 71.73 134.46 71.73 138.88 65.77 0 65.77"/>
  <path class="cls-1" d="M13.34,49.27c-3.06,0-5.53,2.48-5.53,5.54s2.48,5.54,5.53,5.54,5.54-2.48,5.54-5.54-2.48-5.54-5.54-5.54ZM13.34,57.06c-1.24,0-2.25-1.01-2.25-2.25s1.01-2.25,2.25-2.25,2.25,1.01,2.25,2.25-1.01,2.25-2.25,2.25Z"/>
  <path class="cls-1" d="M26.61,49.27c-3.06,0-5.54,2.48-5.54,5.54s2.48,5.54,5.54,5.54,5.54-2.48,5.54-5.54-2.48-5.54-5.54-5.54ZM26.61,57.06c-1.24,0-2.25-1.01-2.25-2.25s1.01-2.25,2.25-2.25,2.25,1.01,2.25,2.25-1.01,2.25-2.25,2.25Z"/>
  <path class="cls-1" d="M48.9,49.27c-3.06,0-5.54,2.48-5.54,5.54s2.48,5.54,5.54,5.54,5.54-2.48,5.54-5.54-2.48-5.54-5.54-5.54ZM48.9,57.06c-1.24,0-2.25-1.01-2.25-2.25s1.01-2.25,2.25-2.25,2.25,1.01,2.25,2.25-1.01,2.25-2.25,2.25Z"/>
  <path class="cls-1" d="M72.41,49.27c-3.06,0-5.54,2.48-5.54,5.54s2.48,5.54,5.54,5.54,5.53-2.48,5.53-5.54-2.48-5.54-5.53-5.54ZM72.41,57.06c-1.24,0-2.25-1.01-2.25-2.25s1-2.25,2.25-2.25,2.25,1.01,2.25,2.25-1.01,2.25-2.25,2.25Z"/>
  <rect class="cls-2" x="70.33" y="20.76" width="9.65" height="11.51"/>
  <rect class="cls-2" x="81.65" y="20.76" width="9.65" height="11.51"/>
  <rect class="cls-2" x="92.97" y="20.76" width="9.65" height="11.51"/>
  <path class="cls-1" d="M158.25,39.57l-5.38,7.28c.09.16.22.3.38.42.61.45,1.41.39,1.8-.13l4.18-5.56c.39-.52.23-1.31-.38-1.76-.18-.14-.39-.21-.6-.25h0Z"/>
  <rect class="cls-1" x="75.15" width="1.34" height="6.08"/>
  <rect class="cls-1" x="77.94" y="1.7" width="2.04" height="4.38"/>
  <rect class="cls-1" x="91.3" width="1.67" height="6.08"/>
  <rect class="cls-1" x="95.26" y="3.04" width="2.54" height="3.04"/>
</svg>